<svg xmlns="http://www.w3.org/2000/svg" xmlns:xlink="http://www.w3.org/1999/xlink" version="1.1" x="0px" y="0px" viewBox="0 0 100 125" enable-background="new 0 0 100 100" xml:space="preserve"><g><g><path fill="#000000" d="M50,11.229c21.378,0,38.771,17.393,38.771,38.771S71.378,88.771,50,88.771S11.229,71.378,11.229,50    S28.622,11.229,50,11.229 M50,7.229C26.378,7.229,7.229,26.378,7.229,50S26.378,92.771,50,92.771S92.771,73.622,92.771,50    S73.622,7.229,50,7.229L50,7.229z"/></g><g><rect x="48" y="21.633" transform="matrix(0.7071 0.7071 -0.7071 0.7071 49.8624 -20.7677)" fill="#000000" width="4" height="56.345"/></g><g><rect x="21.827" y="47.806" transform="matrix(0.7071 0.7071 -0.7071 0.7071 49.8628 -20.7677)" fill="#000000" width="56.345" height="4"/></g></g><g><path fill="#000000" d="M-166.733,126.562c21.378,0,38.771,17.393,38.771,38.771s-17.393,38.771-38.771,38.771   s-38.771-17.393-38.771-38.771S-188.111,126.562-166.733,126.562 M-166.733,122.562c-23.622,0-42.771,19.149-42.771,42.771   s19.149,42.771,42.771,42.771s42.771-19.149,42.771-42.771S-143.111,122.562-166.733,122.562L-166.733,122.562z"/></g><g><g><polygon fill="#000000" points="-26.456,204.643 -104.074,204.643 -104.074,129.024 -100.074,129.024 -100.074,200.643     -30.456,200.643 -30.456,131.024 -63.264,131.024 -63.264,169.928 -67.264,169.928 -67.264,127.024 -26.456,127.024   "/></g><g><polygon fill="#000000" points="-65.265,173.414 -87.953,150.727 -85.124,147.899 -65.265,167.758 -45.405,147.899     -42.577,150.727   "/></g></g><g><g><rect x="-158.501" y="-145.334" fill="#000000" width="40.904" height="4"/></g><g><polygon fill="#000000" points="-116.938,-104.524 -192.556,-104.524 -192.556,-182.143 -116.938,-182.143 -116.938,-178.143     -188.556,-178.143 -188.556,-108.524 -116.938,-108.524   "/></g><g><polygon fill="#000000" points="-136.798,-120.646 -139.626,-123.474 -119.766,-143.333 -139.626,-163.193 -136.798,-166.021     -114.11,-143.333   "/></g></g><g><polygon fill="#000000" points="-175.839,187.489 -196.843,166.485 -194.015,163.657 -175.839,181.832 -142.26,148.254    -139.432,151.082  "/></g><g><polygon fill="#000000" points="-308.808,202.643 -312.808,202.643 -312.808,127.024 -285.716,127.024 -281.618,137.024    -235.189,137.024 -235.189,145.218 -239.189,145.218 -239.189,141.024 -284.302,141.024 -288.4,131.024 -308.808,131.024  "/></g><g><path fill="#000000" d="M-235.386,204.643h-77.64l6.379-61.425h77.64L-235.386,204.643z M-308.589,200.643h69.597l5.549-53.425   h-69.597L-308.589,200.643z"/></g></svg>